# xmcd
#
# Track frame offsets:
#	150
#	18025
#	35700
#	48150
#	67367
#	84787
#	101437
#	120047
#	136162
#	153875
#	165545
#	179525
#	193995
#	206175
#	225120
#	244110
#	258257
#
# Disc length: 3665 seconds
#
# Revision: 1
# Processed by: cddbd v1.5.2PL0 Copyright (c) Steve Scherf et al.
# Submitted via: audiograbber 1.83.01
#
DISCID=d30e4f11
DTITLE=Various Artist - Cow Cow Boogie
DYEAR=1988
DGENRE=Country
TTITLE0=Eddy Raven - 'Til You Cry
TTITLE1=Eddy Raven - Joe Knows How To Live
TTITLE2=Eddy Raven - I'm gonna Get You
TTITLE3=Jo-el Sonnier - Tear Stained Letter
TTITLE4=Jo-el Sonnier - No More One More Time
TTITLE5=Jo-el Sonnier - Rainin' In My Heart
TTITLE6=Michael Johnson - That's That
TTITLE7=Michael Johnson - I Will Whisper Your Name
TTITLE8=Michael Johnson and Juice Newton - It Must Be You
TTITLE9=David Ball - Steppin' Out
TTITLE10=David Ball - Texas Echo
TTITLE11=Eddie Rabbitt - I Wanna Dance With You
TTITLE12=Earl Thomas Conley - Finally Friday
TTITLE13=Earl Thomas Conley - You Must Not Be Drinking Enough
TTITLE14=Keith Whitley - Don't Close Your Eyes
TTITLE15=Keith Whitley - Honky Tonk Heart
TTITLE16=Keith Whitley - When You Say Nothing At All
EXTD=
EXTT0=
EXTT1=
EXTT2=
EXTT3=
EXTT4=
EXTT5=
EXTT6=
EXTT7=
EXTT8=
EXTT9=
EXTT10=
EXTT11=
EXTT12=
EXTT13=
EXTT14=
EXTT15=
EXTT16=
PLAYORDER=
